<svg xmlns="http://www.w3.org/2000/svg" viewBox="0 0 2600 512"><defs><style>.cls-1{fill:#7b2cbf;}.cls-2{fill:#9d4edd;}.cls-3{font-size:283.75397px;fill:#4b4b4b;font-family:Aileron-SemiBold, Aileron;font-weight:600;letter-spacing:-0.003em;}.cls-4{letter-spacing:-0.02799em;}.cls-5{fill:none;stroke:#4b4b4b;stroke-miterlimit:10;stroke-width:6px;}</style></defs><title>Artboard 3</title><g id="Layer_3" data-name="Layer 3"><path class="cls-1" d="M255.32827,326.92346V461.79739c0,10.3447-7.94932,19.24627-18.28255,19.7335a19.2139,19.2139,0,0,1-20.1424-19.1905v-96.992a38.4249,38.4249,0,0,1,38.4249-38.4249Z"/><path class="cls-1" d="M146.251,365.34836v96.449c0,10.3447-7.94931,19.24627-18.28254,19.7335a19.2139,19.2139,0,0,1-20.1424-19.1905V326.92346h0A38.4249,38.4249,0,0,1,146.251,365.34836Z"/><path class="cls-2" d="M67.41124,223.12776H257.55093a0,0,0,0,1,0,0v3.5365A31.06489,31.06489,0,0,1,226.486,257.72915H36.34635a0,0,0,0,1,0,0v-3.5365A31.06489,31.06489,0,0,1,67.41124,223.12776Z"/><path class="cls-1" d="M60.99883,223.12776h196.5521a0,0,0,0,1,0,0v3.19356a24.65248,24.65248,0,0,1-24.65248,24.65248H36.34635a0,0,0,0,1,0,0v-3.19356A24.65248,24.65248,0,0,1,60.99883,223.12776Z"/><path class="cls-2" d="M67.42512,173.01883H326.3377a0,0,0,0,1,0,0v3.5365a31.06489,31.06489,0,0,1-31.06489,31.06489H36.36024a0,0,0,0,1,0,0v-3.5365a31.06489,31.06489,0,0,1,31.06489-31.06489Z"/><path class="cls-1" d="M61.36021,173.01883H326.808a0,0,0,0,1,0,0v2.84606a25,25,0,0,1-25,25H36.36024a0,0,0,0,1,0,0V198.0188a25,25,0,0,1,25-25Z"/><path class="cls-2" d="M66.963,270.83544H194.56411a0,0,0,0,1,0,0v3.48389a30.60275,30.60275,0,0,1-30.60275,30.60275H36.36024a0,0,0,0,1,0,0v-3.48389A30.60275,30.60275,0,0,1,66.963,270.83544Z"/><path class="cls-1" d="M61.36021,270.83544h133.2039a0,0,0,0,1,0,0v2.84606a25,25,0,0,1-25,25H36.36024a0,0,0,0,1,0,0v-2.84606a25,25,0,0,1,25-25Z"/><circle class="cls-2" cx="181.57718" cy="89.38519" r="58.93804"/><circle class="cls-1" cx="178.61095" cy="86.41896" r="54.34495"/><text class="cls-3" transform="translate(383.3469 352.71781)"><tspan xml:space="preserve">COLLEGE  AD</tspan><tspan class="cls-4" x="1790.46582" y="0">D</tspan><tspan x="1986.54102" y="0">A</tspan></text><line class="cls-5" x1="1730.34976" y1="427.08" x2="1730.34976" y2="84.92"/></g></svg>