<svg id="Layer_2" data-name="Layer 2" xmlns="http://www.w3.org/2000/svg" viewBox="0 0 1450.2 482.52"><defs><style>.cls-1,.cls-5{fill:none;stroke:#4b4b4b;stroke-miterlimit:10;}.cls-1{stroke-width:3px;}.cls-2{fill:#7b2cbf;}.cls-3{fill:#9d4edd;}.cls-4{fill:#4b4b4b;}.cls-5{stroke-width:6px;}</style></defs><title>mini_project_logo</title><rect class="cls-1" x="1.5" y="1.5" width="1447.2" height="479.52" rx="128.52"/><path class="cls-2" d="M341.31839,321.29089V445.45347c0,9.52315-7.318,17.71778-16.83059,18.16632a17.688,17.688,0,0,1-18.54274-17.66645V356.66418a35.37329,35.37329,0,0,1,35.37329-35.37329Z" transform="translate(-24.9 -14.74)"/><path class="cls-2" d="M240.90378,356.66418v88.78929c0,9.52315-7.318,17.71778-16.83059,18.16632a17.688,17.688,0,0,1-18.54274-17.66645V321.29089h0A35.37329,35.37329,0,0,1,240.90378,356.66418Z" transform="translate(-24.9 -14.74)"/><path class="cls-3" d="M145.89235,210.99839H318.46453a0,0,0,0,1,0,0v.78854a31.06489,31.06489,0,0,1-31.06489,31.06489H114.82747a0,0,0,0,1,0,0v-.78854a31.06489,31.06489,0,0,1,31.06489-31.06489Z"/><path class="cls-2" d="M139.47994,210.99839H318.46453a0,0,0,0,1,0,0v.98209A24.65248,24.65248,0,0,1,293.812,236.633H114.82747a0,0,0,0,1,0,0v-.98209a24.65248,24.65248,0,0,1,24.65248-24.65248Z"/><path class="cls-3" d="M145.90514,164.869H381.78842a0,0,0,0,1,0,0v.78854a31.06489,31.06489,0,0,1-31.06489,31.06489H114.84025a0,0,0,0,1,0,0v-.78854A31.06489,31.06489,0,0,1,145.90514,164.869Z"/><path class="cls-2" d="M139.84022,164.869H382.22137a0,0,0,0,1,0,0v.63459a25,25,0,0,1-25,25H114.84025a0,0,0,0,1,0,0V189.869A25,25,0,0,1,139.84022,164.869Z"/><path class="cls-3" d="M145.443,254.91725H260.48a0,0,0,0,1,0,0v.77681a30.60275,30.60275,0,0,1-30.60275,30.60275h-115.037a0,0,0,0,1,0,0V285.52A30.60275,30.60275,0,0,1,145.443,254.91725Z"/><path class="cls-2" d="M139.84022,254.91725H260.48a0,0,0,0,1,0,0v.63459a25,25,0,0,1-25,25H114.84025a0,0,0,0,1,0,0v-.63459A25,25,0,0,1,139.84022,254.91725Z"/><circle class="cls-3" cx="248.52442" cy="87.87733" r="54.25733"/><circle class="cls-2" cx="245.79376" cy="85.14667" r="50.02901"/><path class="cls-4" d="M611.2534,135.29932l.19336,1.93115H590.394l-.38672-1.93115c-3.66992-17.96289-14.67871-29.3584-34.76562-29.3584-24.72266,0-40.36816,21.24609-40.36816,52.729,0,33.02783,15.83789,53.50147,39.40234,53.50147,20.08691,0,31.0957-11.78223,34.76562-29.74463l.38672-1.93164h21.05274l-.19336,1.93164c-2.7041,26.0747-22.21192,45.96875-56.97754,45.96875-38.04981,0-61.4209-28.19922-61.4209-68.75977,0-41.9126,26.26856-69.91894,63.73828-69.91894C590.394,89.7168,608.5493,109.03125,611.2534,135.29932Z" transform="translate(-24.9 -14.74)"/><path class="cls-4" d="M756.50145,159.05615c0,41.14014-23.3711,69.33936-64.125,69.33936-40.94629,0-64.31739-28.19922-64.31739-69.33936,0-41.333,23.3711-69.33935,64.31739-69.33935C733.13035,89.7168,756.50145,117.72314,756.50145,159.05615Zm-22.791,0c0-33.22119-15.45215-53.11523-41.334-53.11523-26.07422,0-41.52637,19.894-41.52637,53.11523,0,33.02783,15.45215,53.11524,41.52637,53.11524C718.25828,212.17139,733.71043,192.084,733.71043,159.05615Z" transform="translate(-24.9 -14.74)"/><path class="cls-4" d="M873.35789,225.69141H781.227V92.4209h21.2461V208.11523h70.88476Z" transform="translate(-24.9 -14.74)"/><path class="cls-4" d="M986.35105,225.69141H894.2202V92.4209h21.24609V208.11523h70.88476Z" transform="translate(-24.9 -14.74)"/><path class="cls-4" d="M1099.34422,225.69141h-92.13086V92.4209h90.19922v16.80371h-68.95313v41.333h63.54493v16.80371h-63.54493v41.33349h70.88477Z" transform="translate(-24.9 -14.74)"/><path class="cls-4" d="M1232.229,159.63574v66.05567h-17.76953l-.77246-22.59815-5.9873,12.94092c-7.53321,8.11182-18.73535,12.36133-33.60742,12.36133-38.04981,0-60.45508-28.19922-60.45508-68.75977,0-41.9126,26.65429-69.91894,64.125-69.91894,34.959,0,53.11426,19.31445,55.81836,45.58252l.19336,1.93115h-21.2461l-.38574-1.93115c-3.47656-17.96289-14.48633-29.3584-34.7666-29.3584-24.72266,0-40.75391,21.24609-40.75391,52.729,0,33.02783,16.03125,53.50147,39.78809,53.50147,19.70117,0,33.99414-14.09961,35.15234-35.53907h-29.74414V159.63574Z" transform="translate(-24.9 -14.74)"/><path class="cls-4" d="M1353.52586,225.69141H1261.395V92.4209h90.19922v16.80371h-68.95313v41.333H1346.186v16.80371h-63.54493v41.33349h70.88477Z" transform="translate(-24.9 -14.74)"/><path class="cls-4" d="M699.90965,379.6543l-14.48633,44.03711H662.82566L710.72605,290.4209h27.42676l46.54785,133.27051H761.71629L747.23,379.6543Zm41.71973-16.80371L724.0532,307.99707l-18.542,54.85352Z" transform="translate(-24.9 -14.74)"/><path class="cls-4" d="M916.62059,355.51074c0,39.78809-23.56348,63.54492-54.4668,67.40821a122.39012,122.39012,0,0,1-16.99707.77246H802.85789V290.4209h43.07129a122.39012,122.39012,0,0,1,16.99707.77246C893.82957,294.86328,916.62059,315.14355,916.62059,355.51074Zm-22.791,0c0-28.00586-13.32715-44.23047-34.57324-47.32031a85.3651,85.3651,0,0,0-15.25781-.96582H824.104v99.46973h19.12207c6.56641,0,11.00879,0,15.25782-.77246C879.92332,402.832,893.82957,385.0625,893.82957,355.51074Z" transform="translate(-24.9 -14.74)"/><path class="cls-4" d="M1054.91453,355.51074c0,39.78809-23.56348,63.54492-54.4668,67.40821a122.39,122.39,0,0,1-16.99707.77246H941.15184V290.4209h43.07129a122.39012,122.39012,0,0,1,16.99707.77246C1032.12352,294.86328,1054.91453,315.14355,1054.91453,355.51074Zm-22.791,0c0-28.00586-13.32715-44.23047-34.57325-47.32031a85.365,85.365,0,0,0-15.25781-.96582H962.39793v99.46973H981.519c6.56739,0,11.00977,0,15.25879-.77246C1018.21727,402.832,1032.12352,385.0625,1032.12352,355.51074Z" transform="translate(-24.9 -14.74)"/><path class="cls-4" d="M1097.79734,379.6543,1083.311,423.69141h-22.59766l47.90039-133.27051h27.42676l46.54785,133.27051H1159.604l-14.48632-44.03711Zm41.71973-16.80371-17.57617-54.85352-18.542,54.85352Z" transform="translate(-24.9 -14.74)"/><line class="cls-5" x1="540.46033" y1="243.6862" x2="1251.10033" y2="243.6862"/></svg>