<svg id="Layer_2" data-name="Layer 2" xmlns="http://www.w3.org/2000/svg" viewBox="0 0 1318.51324 451.1057"><defs><style>.cls-1{fill:#7b2cbf;}.cls-2{fill:#9d4edd;}.cls-3{fill:#4b4b4b;}.cls-4{fill:none;stroke:#4b4b4b;stroke-miterlimit:10;stroke-width:6px;}</style></defs><title>mini_project_logo_wob</title><path class="cls-1" d="M306.06192,326.92346V461.79739c0,10.3447-7.94931,19.24627-18.28254,19.7335a19.2139,19.2139,0,0,1-20.1424-19.1905v-96.992a38.4249,38.4249,0,0,1,38.4249-38.4249Z" transform="translate(-87.08 -30.44715)"/><path class="cls-1" d="M196.98467,365.34836v96.449c0,10.3447-7.94932,19.24627-18.28254,19.7335a19.2139,19.2139,0,0,1-20.1424-19.1905V326.92346h0A38.4249,38.4249,0,0,1,196.98467,365.34836Z" transform="translate(-87.08 -30.44715)"/><path class="cls-2" d="M31.06489,192.68061H221.20458a0,0,0,0,1,0,0v3.5365A31.06489,31.06489,0,0,1,190.13969,227.282H0a0,0,0,0,1,0,0v-3.5365A31.06489,31.06489,0,0,1,31.06489,192.68061Z"/><path class="cls-1" d="M24.65248,192.68061h196.5521a0,0,0,0,1,0,0v3.19356a24.65248,24.65248,0,0,1-24.65248,24.65248H0a0,0,0,0,1,0,0v-3.19356A24.65248,24.65248,0,0,1,24.65248,192.68061Z"/><path class="cls-2" d="M31.07877,142.57168H289.99135a0,0,0,0,1,0,0v3.5365a31.06489,31.06489,0,0,1-31.06489,31.06489H.01389a0,0,0,0,1,0,0v-3.5365a31.06489,31.06489,0,0,1,31.06489-31.06489Z"/><path class="cls-1" d="M25.01386,142.57168H290.46165a0,0,0,0,1,0,0v2.84606a25,25,0,0,1-25,25H.01389a0,0,0,0,1,0,0v-2.84606a25,25,0,0,1,25-25Z"/><path class="cls-2" d="M30.61664,240.38829H158.21776a0,0,0,0,1,0,0v3.48389A30.60275,30.60275,0,0,1,127.615,274.47493H.01389a0,0,0,0,1,0,0V270.991A30.60275,30.60275,0,0,1,30.61664,240.38829Z"/><path class="cls-1" d="M25.01386,240.38829h133.2039a0,0,0,0,1,0,0v2.84606a25,25,0,0,1-25,25H.01389a0,0,0,0,1,0,0v-2.84606A25,25,0,0,1,25.01386,240.38829Z"/><circle class="cls-2" cx="145.23083" cy="58.93804" r="58.93804"/><circle class="cls-1" cx="142.2646" cy="55.97181" r="54.34495"/><path class="cls-3" d="M599.2866,124.88672l.21,2.09814H576.62742l-.41992-2.09814c-3.98633-19.51221-15.94531-31.89063-37.76562-31.89063-26.85547,0-43.84961,23.07862-43.84961,57.27735,0,35.87744,17.2041,58.11719,42.80078,58.11719,21.82031,0,33.77929-12.79834,37.76562-32.31055l.41895-2.09815h22.86914l-.209,2.09815c-2.9375,28.32422-24.12793,49.93457-61.89355,49.93457-41.333,0-66.71973-30.63233-66.71973-74.6919,0-45.52832,28.53418-75.95068,69.23731-75.95068C576.62742,75.37207,596.3491,96.353,599.2866,124.88672Z" transform="translate(-87.08 -30.44715)"/><path class="cls-3" d="M757.063,150.69336c0,44.689-25.38672,75.32129-69.65625,75.32129-44.47949,0-69.86621-30.63233-69.86621-75.32129,0-44.89893,25.38672-75.32129,69.86621-75.32129C731.67625,75.37207,757.063,105.79443,757.063,150.69336Zm-24.75684,0c0-36.08691-16.78515-57.69727-44.89941-57.69727-28.32422,0-45.1084,21.61036-45.1084,57.69727,0,35.87695,16.78418,57.69727,45.1084,57.69727C715.521,208.39063,732.30613,186.57031,732.30613,150.69336Z" transform="translate(-87.08 -30.44715)"/><path class="cls-3" d="M884.00242,223.07715H783.92332V78.30957h23.0791V203.98438h77Z" transform="translate(-87.08 -30.44715)"/><path class="cls-3" d="M1006.74266,223.07715H906.66355V78.30957h23.07911V203.98438h77Z" transform="translate(-87.08 -30.44715)"/><path class="cls-3" d="M1129.48387,223.07715h-100.0791V78.30957h97.98046V96.5625h-74.90136v44.89941h69.02734v18.25293h-69.02734v44.89942h77Z" transform="translate(-87.08 -30.44715)"/><path class="cls-3" d="M1273.83152,151.32275v71.7544h-19.30175l-.83985-24.54736-6.5039,14.05712c-8.18262,8.81153-20.35157,13.42774-36.50684,13.42774-41.332,0-65.66992-30.63233-65.66992-74.6919,0-45.52832,28.9541-75.95068,69.65625-75.95068,37.97558,0,57.69824,20.981,60.63476,49.51465l.21,2.09814h-23.0791l-.41894-2.09814c-3.77735-19.51221-15.73633-31.89063-37.76563-31.89063-26.85547,0-44.26953,23.07862-44.26953,57.27735,0,35.87744,17.41406,58.11719,43.2207,58.11719,21.4004,0,36.92579-15.31592,38.18457-38.605h-32.31054V151.32275Z" transform="translate(-87.08 -30.44715)"/><path class="cls-3" d="M1405.59324,223.07715h-100.0791V78.30957h97.98047V96.5625h-74.90137v44.89941h69.02735v18.25293h-69.02735v44.89942h77Z" transform="translate(-87.08 -30.44715)"/><path class="cls-3" d="M695.59031,390.32227,679.855,438.1582H655.30711l52.0332-144.76757h29.792L787.69676,438.1582H762.729l-15.73535-47.83593Zm45.31934-18.25391-19.09277-59.585-20.14161,59.585Z" transform="translate(-87.08 -30.44715)"/><path class="cls-3" d="M930.99656,364.0957c0,43.22071-25.59668,69.02735-59.166,73.22364a132.9801,132.9801,0,0,1-18.46289.83886H807.41941V293.39063h46.78711a132.99417,132.99417,0,0,1,18.46387.83886C906.23973,298.21582,930.99656,320.24609,930.99656,364.0957Zm-24.75683,0c0-30.42187-14.47754-48.0459-37.55567-51.40332a92.76636,92.76636,0,0,0-16.57519-1.04883H830.49852V419.69531H851.27c7.13281,0,11.959,0,16.57422-.83984C891.13328,415.499,906.23973,396.19629,906.23973,364.0957Z" transform="translate(-87.08 -30.44715)"/><path class="cls-3" d="M1081.22215,364.0957c0,43.22071-25.59668,69.02735-59.166,73.22364a132.98,132.98,0,0,1-18.46289.83886H957.645V293.39063h46.78711a132.99424,132.99424,0,0,1,18.46387.83886C1056.46531,298.21582,1081.22215,320.24609,1081.22215,364.0957Zm-24.75684,0c0-30.42187-14.47754-48.0459-37.55566-51.40332a92.76648,92.76648,0,0,0-16.5752-1.04883H980.7241V419.69531h20.77051c7.13379,0,11.96,0,16.57519-.83984C1041.35887,415.499,1056.46531,396.19629,1056.46531,364.0957Z" transform="translate(-87.08 -30.44715)"/><path class="cls-3" d="M1127.80223,390.32227l-15.73535,47.83593H1087.519l52.03321-144.76757h29.792l50.56445,144.76757H1194.9409l-15.73535-47.83593Zm45.31933-18.25391-19.09277-59.585-20.1416,59.585Z" transform="translate(-87.08 -30.44715)"/><line class="cls-4" x1="462.35169" y1="228.18836" x2="1234.29774" y2="228.18836"/></svg>